<svg width="68" height="77" viewBox="0 0 68 77" fill="none" xmlns="http://www.w3.org/2000/svg">
<path d="M0 11C0 4.92487 4.92487 0 11 0H57C63.0751 0 68 4.92487 68 11V57C68 63.0751 63.0751 68 57 68H11C4.92487 68 0 63.0751 0 57V11Z" fill="white"/>
<path d="M50.8077 9H19.5094C14.2801 9 10.0409 13.3797 10.0409 18.7823V51.1176C10.0409 56.5203 14.2801 60.8999 19.5094 60.8999H50.8077C56.037 60.8999 60.2762 56.5203 60.2762 51.1176V18.7823C60.2762 13.3797 56.037 9 50.8077 9Z" fill="url(#paint0_radial_11_4594)"/>
<path d="M51.7568 44.8389C51.7574 49.0951 50.1647 53.1775 47.3287 56.1891C44.4927 59.2006 40.6454 60.895 36.6321 60.8999H19.3951C18.1655 60.9001 16.9572 60.7673 15.8212 60.2684C14.6851 59.7695 13.6529 59.0382 12.7834 58.1162C11.9139 57.1942 11.2242 56.0996 10.7537 54.8949C10.2831 53.6902 10.0409 52.399 10.0409 51.0951V18.7921C10.0412 16.2316 11.0005 13.776 12.7077 11.9654C14.415 10.1548 16.7002 9.00033 19.1147 9C21.1637 9 23.2217 9 25.2696 9C27.5801 9.00166 29.8818 9.66495 31.9561 10.7444C34.0303 11.8238 35.8443 13.392 37.2593 15.3291C38.6743 17.2661 39.6528 19.5207 40.12 21.9205C40.5873 24.3202 40.5308 26.8014 39.9549 29.1744C43.3056 29.979 46.2988 31.9677 48.4433 34.8141C50.5879 37.6605 51.7562 41.1955 51.7568 44.8389Z" fill="url(#paint1_linear_11_4594)"/>
<path d="M36.5241 34.9026H26.7232C29.046 34.5012 31.1403 33.1908 32.5891 31.2322C34.0379 29.2737 34.7348 26.8109 34.541 24.3343C34.3473 21.8576 33.277 19.5489 31.5435 17.8679C29.81 16.187 27.5404 15.2571 25.1867 15.2636H25.1703H15.7383V50.5861C15.7383 51.1161 15.8372 51.6408 16.0293 52.1304C16.2214 52.62 16.503 53.0648 16.8579 53.4395C17.2129 53.8142 17.6343 54.1113 18.098 54.314C18.5618 54.5167 19.0588 54.6209 19.5607 54.6208C25.2004 54.6208 30.842 54.6208 36.4806 54.6208C38.9632 54.6208 41.3982 53.6277 43.1536 51.7743C44.9091 49.9208 45.8953 47.407 45.8953 44.7858C45.8953 42.1646 44.9091 39.6508 43.1536 37.7973C41.3982 35.9439 39.0067 34.9026 36.5241 34.9026Z" fill="url(#paint2_radial_11_4594)"/>
<path d="M42.3069 44.7945C42.3069 46.4143 41.6978 47.9679 40.6134 49.1137C39.5291 50.2595 38.0582 50.8372 36.524 50.8385H19.3674V38.6801H36.524C38.0522 38.6919 39.5525 39.3414 40.6287 40.487C41.7049 41.6325 42.3082 43.181 42.3069 44.7945Z" fill="url(#paint3_radial_11_4594)"/>
<path d="M25.2088 19.0448H19.3674V31.2859L25.1655 31.2674C26.7005 31.2728 28.1746 30.6342 29.2636 29.492C30.3526 28.3499 30.9673 26.7978 30.9724 25.1771C30.9775 23.5564 30.3727 22 29.2909 20.8502C28.2092 19.7004 26.7391 19.0514 25.2042 19.046L25.2088 19.0448Z" fill="url(#paint4_radial_11_4594)"/>
<path d="M20.5097 23.9753C20.5106 24.985 20.3741 25.9896 20.1045 26.9577C24.1263 24.6537 28.5532 23.2624 33.1056 22.8716C31.1256 20.2919 28.6312 18.2137 25.8032 16.7876C22.9751 15.3616 19.8844 14.6234 16.7552 14.6268C16.2377 14.6268 15.7248 14.6464 15.2167 14.6857C16.8128 15.5704 18.1504 16.9043 19.0837 18.5423C20.017 20.1803 20.5102 22.0595 20.5097 23.9753Z" fill="white"/>
<path d="M57.1004 31.7373C52.6967 27.523 47.3128 24.6418 41.5087 23.3934C40.5309 23.1827 39.5378 23.0192 38.5294 22.903C38.0149 22.8428 37.4962 22.7955 36.9731 22.7613C36.2859 22.7161 35.5936 22.6935 34.8962 22.6935H34.498C33.6581 22.7324 32.857 22.7726 32.0735 22.834L32.0253 22.755C27.5294 23.1619 23.1594 24.5444 19.1843 26.8172L19.1631 26.8962C19.1172 27.0605 19.0677 27.2236 19.0147 27.3841C17.4767 29.0179 16.257 30.959 15.4255 33.096C14.594 35.2329 14.1671 37.5237 14.1693 39.8367C14.1693 40.2372 14.1815 40.6339 14.2058 41.0269C14.2944 42.4425 14.5436 43.8414 14.948 45.1932C15.0799 45.6322 15.2272 46.0632 15.3898 46.4863C16.0509 48.2111 16.9655 49.813 18.0993 51.232C18.764 52.7494 19.7694 54.0691 21.0268 55.0748C21.2232 56.2838 21.4435 57.4844 21.6877 58.6767C22.6764 63.5216 24.0539 68.2672 25.8051 72.8613C26.336 74.2576 26.9003 75.6372 27.4979 77C27.472 76.4658 27.4508 75.9302 27.4343 75.3935C27.4343 75.3696 27.4343 75.347 27.4343 75.3232C26.1569 70.3549 26.3168 65.0919 27.8931 60.2219C29.4694 55.3518 32.3887 51.1011 36.2698 48.0251C34.259 49.5073 32.0645 50.6849 29.7492 51.5242C29.1084 51.7575 28.4569 51.9665 27.7948 52.1513C27.7948 52.1513 26.1043 52.7358 24.8367 52.7696C23.803 52.7508 22.8055 52.3614 22.0054 51.6644C21.2054 50.9673 20.6495 50.0034 20.4277 48.9284C20.2059 47.8534 20.3312 46.7302 20.7832 45.7404C21.2353 44.7506 21.9877 43.952 22.9188 43.4738L22.9789 43.4449L23.0566 43.4073L23.1415 43.3672C24.5625 42.7057 26.0738 42.2903 27.6181 42.1368C27.7595 42.1368 27.902 42.1368 28.0434 42.1368C28.3968 42.1368 28.7596 42.1368 29.1154 42.1556C30.1121 42.1916 31.0938 42.2752 32.0606 42.4065C32.9371 42.5607 35.3604 43.0248 36.1332 43.248C36.7658 43.4249 38.1041 43.7058 39.2586 44.1059L39.8335 44.294C42.1602 44.9976 44.3467 44.8997 45.811 44.0294C46.1868 43.7196 46.552 43.391 46.9066 43.0511C47.0217 42.8976 47.1238 42.7335 47.2117 42.5607C47.7053 41.5938 47.7324 40.4412 47.3731 39.2472C47.3625 39.2096 47.3731 39.1946 47.3731 39.1946C47.5239 38.9726 48.9187 38.8183 49.4736 38.6477C51.2104 38.3393 52.8555 37.6033 54.278 36.4985C55.7004 35.3938 56.8609 33.9506 57.6671 32.2841L57.1004 31.7373Z" fill="url(#paint5_linear_11_4594)"/>
<path opacity="0.13" d="M45.3491 34.2757C43.2852 33.305 41.2259 32.2954 39.0064 31.8075C36.7269 31.3059 34.3213 31.509 32.0382 31.8978C29.9247 32.259 27.922 32.9212 25.924 33.7226C25.1706 34.0132 24.4345 34.3525 23.7198 34.7385C23.3912 34.9146 23.0744 35.1145 22.7715 35.3367V40.4336H45.5506V34.371L45.3491 34.2757Z" fill="white"/>
<path d="M20.8137 54.8942C20.8844 54.9544 20.9551 55.0196 21.027 55.071C21.2233 56.28 21.4436 57.4807 21.6878 58.673C22.6765 63.5179 24.054 68.2635 25.8052 72.8575C26.3361 74.2538 26.9004 75.6334 27.4981 76.9963C27.4722 76.462 27.4509 75.9265 27.4345 75.3897C27.4345 75.3659 27.4345 75.3433 27.4345 75.3195C26.5538 71.8914 26.3523 68.3058 26.8429 64.7904C27.3335 61.275 28.5054 57.9066 30.2842 54.8992L20.8137 54.8942Z" fill="url(#paint6_linear_11_4594)"/>
<path d="M45.791 44.0457C46.1833 43.7234 46.5638 43.3797 46.9325 43.0261C47.0402 42.8796 47.1363 42.724 47.22 42.5608C47.7112 41.5976 47.7407 40.4488 47.3837 39.2586V39.2473L47.392 39.1808C47.5098 39.0554 48.047 38.9438 48.5701 38.8434C47.9351 38.8911 47.1564 38.94 46.6321 38.94C42.2223 38.9485 37.8866 37.733 34.0527 35.4133L33.6357 35.1236C31.5134 33.9165 29.0865 33.4558 26.7031 33.8078C24.3197 34.1597 22.1022 35.3061 20.3686 37.0826C18.6351 38.8591 17.4744 41.1744 17.0532 43.6965C16.632 46.2186 16.9718 48.8179 18.024 51.1217C18.0511 51.1581 18.0793 51.1932 18.1076 51.2283C18.3689 51.8245 18.6846 52.3921 19.0501 52.9227C19.6093 53.7397 20.2795 54.4638 21.0386 55.071L21.0598 55.1965C23.0919 56.9702 25.6395 57.9375 28.2673 57.933C28.4416 57.933 28.6207 57.933 28.7868 57.9193C28.9046 57.6408 29.0083 57.4176 29.0389 57.3474C29.1049 57.2069 29.2592 56.8858 29.3263 56.7416C31.0056 53.3395 33.3808 50.3822 36.2769 48.0879L36.284 48.0089C34.2729 49.4914 32.078 50.669 29.7622 51.508C29.1229 51.7412 28.4715 51.9503 27.8078 52.1351C27.8078 52.1351 26.1185 52.7195 24.8509 52.7534C23.8171 52.7348 22.8194 52.3456 22.0191 51.6487C21.2189 50.9517 20.6628 49.9878 20.4409 48.9127C20.2189 47.8377 20.3441 46.7144 20.7961 45.7244C21.2481 44.7345 22.0006 43.9358 22.9318 43.4575L22.993 43.4287L23.0708 43.391L23.1556 43.3509C24.5767 42.6893 26.088 42.2739 27.6323 42.1206H28.0564C28.4161 42.1206 28.7738 42.1268 29.1296 42.1394C30.1262 42.1753 31.1099 42.2589 32.0807 42.3902C32.9583 42.5445 35.3604 43.0248 36.1415 43.2481L36.3771 43.3108C37.0686 43.4889 38.2396 43.751 39.2645 44.1059L39.8406 44.294C42.1531 44.9938 44.3267 44.9061 45.791 44.0457Z" fill="url(#paint7_linear_11_4594)"/>
<path opacity="0.53" d="M45.791 44.0457C46.1833 43.7234 46.5638 43.3797 46.9325 43.0261C47.0402 42.8796 47.1363 42.724 47.22 42.5608C47.7112 41.5976 47.7407 40.4488 47.3837 39.2586V39.2473L47.392 39.1808C47.5098 39.0554 48.047 38.9438 48.5701 38.8434C47.9351 38.8911 47.1564 38.94 46.6321 38.94C42.2223 38.9485 37.8866 37.733 34.0527 35.4133L33.6357 35.1236C31.5134 33.9165 29.0865 33.4558 26.7031 33.8078C24.3197 34.1597 22.1022 35.3061 20.3686 37.0826C18.6351 38.8591 17.4744 41.1744 17.0532 43.6965C16.632 46.2186 16.9718 48.8179 18.024 51.1217C18.0511 51.1581 18.0793 51.1932 18.1076 51.2283C18.3689 51.8245 18.6846 52.3921 19.0501 52.9227C19.6093 53.7397 20.2795 54.4638 21.0386 55.071L21.0598 55.1965C23.0919 56.9702 25.6395 57.9375 28.2673 57.933C28.4416 57.933 28.6207 57.933 28.7868 57.9193C28.9046 57.6408 29.0083 57.4176 29.0389 57.3474C29.1049 57.2069 29.2592 56.8858 29.3263 56.7416C31.0056 53.3395 33.3808 50.3822 36.2769 48.0879L36.284 48.0089C34.2729 49.4914 32.078 50.669 29.7622 51.508C29.1229 51.7412 28.4715 51.9503 27.8078 52.1351C27.8078 52.1351 26.1185 52.7195 24.8509 52.7534C23.8171 52.7348 22.8194 52.3456 22.0191 51.6487C21.2189 50.9517 20.6628 49.9878 20.4409 48.9127C20.2189 47.8377 20.3441 46.7144 20.7961 45.7244C21.2481 44.7345 22.0006 43.9358 22.9318 43.4575L22.993 43.4287L23.0708 43.391L23.1556 43.3509C24.5767 42.6893 26.088 42.2739 27.6323 42.1206H28.0564C28.4161 42.1206 28.7738 42.1268 29.1296 42.1394C30.1262 42.1753 31.1099 42.2589 32.0807 42.3902C32.9583 42.5445 35.3604 43.0248 36.1415 43.2481L36.3771 43.3108C37.0686 43.4889 38.2396 43.751 39.2645 44.1059L39.8406 44.294C42.1531 44.9938 44.3267 44.9061 45.791 44.0457Z" fill="url(#paint8_radial_11_4594)"/>
<path d="M59.5602 40.9052C60.055 41.3342 60.7948 41.4847 60.9315 41.2125C61.1671 40.7447 60.7194 40.4914 60.7194 40.4914C55.2436 36.3809 48.6535 34.2937 41.9575 34.5491C41.9575 34.5491 41.0151 34.5404 41.2 35.0646C41.385 35.5888 44.64 35.9287 44.64 35.9287C44.64 35.9287 48.8587 35.9688 52.0618 37.0249C55.265 38.0809 58.4752 39.9646 59.5602 40.9052Z" fill="#CCCCCC"/>
<path d="M60.4532 41.3301C54.9767 37.2193 48.3856 35.1322 41.6889 35.3882C44.4731 35.9412 47.2131 36.7214 49.8847 37.722C50.4502 37.9327 51.0102 38.153 51.5647 38.383" fill="url(#paint9_linear_11_4594)"/>
<path d="M19.5118 23.9753C19.5116 24.9852 19.3739 25.9898 19.103 26.9577C23.1249 24.6537 27.5518 23.2624 32.1042 22.8716C30.1246 20.2924 27.6307 18.2145 24.8033 16.7884C21.976 15.3624 18.886 14.624 15.7573 14.6267C15.4989 14.6267 15.2429 14.6318 14.9892 14.6418C14.9402 14.6422 14.8927 14.6595 14.8537 14.6912C14.8148 14.7228 14.7865 14.7671 14.7732 14.8173C14.7599 14.8675 14.7623 14.921 14.7801 14.9696C14.7978 15.0183 14.8298 15.0595 14.8714 15.087C16.2911 16.0262 17.4622 17.3353 18.2742 18.8906C19.0862 20.4459 19.5122 22.1959 19.5118 23.9753Z" fill="url(#paint10_linear_11_4594)"/>
<path d="M36.641 36.8079C37.4067 37.1515 38.1898 37.4562 38.9901 37.7221C41.443 38.5318 43.9968 38.9423 46.565 38.9398C46.697 38.9398 46.8466 38.9398 47.0056 38.9311C48.2202 39.7788 47.0869 41.1671 46.3471 41.8155C43.4926 43.9299 38.7014 42.2921 36.1462 40.0598C36.1462 40.0598 34.8657 38.773 35.6102 37.5842C35.8668 37.2145 36.2282 36.9424 36.641 36.8079Z" fill="url(#paint11_linear_11_4594)"/>
<path opacity="0.63" d="M36.8625 39.9356L38.3763 38.9436L39.1939 41.2549L40.8279 39.9406L41.7338 42.0212L43.3902 40.2654L44.6861 41.8168L45.8865 39.434L46.6546 40.1864C46.6546 40.1864 46.6228 39.1706 46.9821 38.9474C47.0834 38.8847 47.312 39.1982 47.398 39.3299C47.8951 40.1651 46.9786 41.2562 46.3483 41.8067C43.4939 43.9212 38.7027 42.2833 36.1474 40.051C36.1474 40.051 35.1449 39.0477 35.4312 37.9867L36.5433 37.84L36.8625 39.9356Z" fill="white"/>
<g opacity="0.63">
<path d="M38.9971 37.7234C41.0994 38.4175 43.2774 38.818 45.4765 38.9148L44.6837 40.4849L43.3878 38.9336L41.7314 40.6893L40.8255 38.6075L39.1915 39.9218L38.374 37.6105L36.8601 38.6025L36.5786 36.774C37.3671 37.1319 38.1733 37.4483 38.9971 37.7234Z" fill="white"/>
</g>
<path d="M41.2766 30.9307C40.9265 30.0915 40.4148 29.3399 39.7745 28.7246C39.1343 28.1093 38.3797 27.6441 37.5598 27.359" fill="url(#paint12_linear_11_4594)"/>
<path opacity="0.25" d="M57.1004 31.7373C55.3434 30.0597 53.4242 28.5853 51.375 27.3389C51.6754 27.6224 54.1941 29.8623 54.2742 30.976C54.3543 32.0897 44.7425 30.2887 39.0877 32.6064C33.433 34.9241 54.7984 35.4634 54.6641 35.8271C54.5923 36.0189 54.5092 36.2057 54.4156 36.3865C55.7744 35.2958 56.8849 33.8932 57.6647 32.2828L57.1004 31.7373Z" fill="white"/>
<path d="M39.0782 37.7234C37.3366 37.1469 35.6584 36.3724 34.0726 35.4132C36.1489 33.408 38.8525 32.2982 41.6558 32.3004C41.7465 32.3004 41.8372 32.3004 41.9268 32.3004C42.5049 32.3199 43.0786 32.4151 43.635 32.5838C44.3127 32.7837 45.0011 32.9509 45.7001 33.0855C49.6583 33.8694 53.7341 33.6515 57.5986 32.4496C56.7839 34.074 55.6298 35.4776 54.2252 36.5522C52.8206 37.6267 51.203 38.3437 49.497 38.6477C49.2803 38.7129 48.9374 38.7731 48.5887 38.8433C47.9538 38.891 47.1751 38.9399 46.6508 38.9399C44.0835 38.9428 41.5304 38.5326 39.0782 37.7234Z" fill="url(#paint13_linear_11_4594)"/>
<path opacity="0.51" d="M36.3676 35.832C37.3711 36.1693 38.3942 36.4362 39.4305 36.6309C42.816 37.2567 46.2816 37.2014 49.6479 36.4679C52.3457 35.8847 54.9492 34.8175 57.2217 33.1696C57.3584 32.9375 57.4868 32.7005 57.6093 32.4585C53.7448 33.6603 49.669 33.8781 45.7108 33.0943C45.0126 32.9564 44.3242 32.7891 43.6457 32.5927C43.0894 32.424 42.5156 32.3288 41.9375 32.3092C41.8479 32.3092 41.7572 32.3092 41.6665 32.3092C39.0442 32.3075 36.5032 33.2782 34.4803 35.0545C35.047 35.4194 35.7503 35.6251 36.3676 35.832Z" fill="url(#paint14_radial_11_4594)"/>
<path opacity="0.4" d="M45.3987 37.9553C43.329 37.8589 41.2729 37.5511 39.2586 37.0361C38.2867 36.794 37.3254 36.5106 36.377 36.1758C35.6431 35.9162 34.9162 35.6265 34.293 35.1336C34.1917 35.2252 34.0904 35.318 33.9914 35.4133C37.8253 37.7328 42.161 38.9483 46.5708 38.9398C47.0951 38.9398 47.8738 38.8909 48.5099 38.8433C48.8633 38.7768 49.2003 38.7178 49.417 38.6476C50.7443 38.4138 52.0212 37.9278 53.1869 37.2129C50.6316 37.8157 48.0139 38.0653 45.3987 37.9553Z" fill="url(#paint15_linear_11_4594)"/>
<path opacity="0.36" d="M43.3289 44.1534C41.0093 43.9514 38.8522 43.0736 36.6704 42.2722C34.2907 41.3943 31.8604 40.5465 29.3323 40.3559C27.2435 40.1991 24.9734 40.4249 23.158 41.6351C22.3047 42.2044 21.6068 43.0023 21.1341 43.9489C20.7724 44.6738 20.4803 45.5492 20.5345 46.3882C20.7251 45.7538 21.0348 45.1674 21.4449 44.6644C21.855 44.1614 22.3569 43.7525 22.92 43.4623L22.9813 43.4335L23.059 43.3959L23.1439 43.3557C24.5649 42.6942 26.0762 42.2788 27.6205 42.1255H28.0446C28.4043 42.1255 28.7621 42.1317 29.1178 42.1443C30.1145 42.1802 31.0982 42.2638 32.0689 42.3951C32.9466 42.5493 35.3604 43.0247 36.1415 43.2479L36.3771 43.3106C37.0686 43.4887 38.2396 43.7508 39.2645 44.1057L39.8406 44.2938C42.1296 44.9861 44.2855 44.9021 45.7486 44.0693C44.9477 44.1954 44.1358 44.2236 43.3289 44.1534Z" fill="url(#paint16_linear_11_4594)"/>
<path opacity="0.43" d="M40.0962 40.5301L39.1938 41.255L38.7767 40.0862C38.3634 39.9142 37.9649 39.7044 37.5857 39.4591L36.8589 39.9357L36.6715 38.7192C36.4307 38.4784 36.2165 38.2091 36.033 37.9166L35.6337 37.9692C35.7303 39.2635 36.7222 40.1276 37.7401 40.6819C38.9311 41.3302 40.3259 41.7366 41.6453 41.9435L41.6984 41.951L41.1788 40.7571C40.8313 40.7007 40.4649 40.6267 40.0962 40.5301Z" fill="white"/>
<path opacity="0.43" d="M42.8411 40.8475L41.7891 41.9637C42.7475 42.1137 43.7245 42.0531 44.66 41.7856L43.7953 40.7497C43.4791 40.8004 43.1606 40.833 42.8411 40.8475Z" fill="white"/>
<g opacity="0.18">
<path d="M37.574 38.0193L37.6788 38.0695L38.3762 37.613L38.6955 38.516C38.8368 38.5724 38.9782 38.6263 39.1219 38.679C39.5052 38.8169 39.8928 38.9399 40.2847 39.0477L40.8278 38.61L41.107 39.2496C41.5546 39.3487 42.007 39.4277 42.4606 39.4866L42.8258 39.533L43.3901 38.9336L43.9862 39.6472C44.349 39.676 44.713 39.6961 45.0771 39.7049L45.4764 38.9148C43.2773 38.818 41.0993 38.4175 38.9971 37.7234C38.1732 37.45 37.3678 37.1344 36.5808 36.7765L36.6845 37.4437C36.9107 37.7221 37.2641 37.8701 37.574 38.0193Z" fill="url(#paint17_linear_11_4594)"/>
<path d="M42.0556 40.2921C41.8764 40.2657 41.7019 40.2356 41.5215 40.2041L41.7337 40.6931L42.1051 40.2984L42.0556 40.2921Z" fill="url(#paint18_linear_11_4594)"/>
<path d="M39.0653 39.562L39.1937 39.925L39.4741 39.6989C39.3374 39.655 39.2008 39.6098 39.0653 39.562Z" fill="url(#paint19_linear_11_4594)"/>
</g>
<path opacity="0.36" d="M24.746 40.1401C24.2548 39.9596 23.7352 39.7639 23.3418 39.4065H16.3087V41.7053C17.402 43.0421 19.5967 43.1926 21.0705 42.6358C22.0683 42.2596 22.9554 41.6012 23.8896 41.0732L25.1949 40.327V40.2869C25.0441 40.2367 24.8945 40.1903 24.746 40.1401Z" fill="url(#paint20_linear_11_4594)"/>
<path opacity="0.15" d="M26.0807 23.9942C26.1208 22.7137 25.434 21.6439 24.5493 20.8049C23.4797 19.8131 22.2449 19.0436 20.909 18.5361C19.8888 18.1373 18.7685 17.835 17.667 17.8739C18.5398 19.1719 19.1228 20.6649 19.3716 22.2391C19.6205 23.8132 19.5286 25.4271 19.1031 26.9578C21.3157 25.6911 23.6567 24.6969 26.0807 23.9942Z" fill="url(#paint21_linear_11_4594)"/>
<path d="M31.8921 51.1028C29.2049 52.3845 26.3269 53.0442 23.3982 53.2825C20.5096 53.2462 18.9875 50.3641 18.6506 49.2905C18.576 49.0506 18.51 48.8135 18.4527 48.5794C18.3224 48.1855 18.2134 47.7839 18.1264 47.3767C17.7989 45.9183 17.6798 44.4156 17.773 42.9194C17.83 41.9956 17.9393 41.0763 18.1005 40.1665C17.2693 41.8515 16.8218 43.7209 16.7942 45.6239C16.7666 47.5268 17.1596 49.4101 17.9414 51.1216L18.0251 51.2282C18.2868 51.8242 18.6025 52.3917 18.9675 52.9226L19.0347 53.0166C19.2391 53.3075 19.4577 53.5868 19.6897 53.8532L19.6967 53.8619C19.771 53.946 19.8464 54.03 19.9229 54.1128L19.9536 54.1429C20.0231 54.2181 20.0938 54.2909 20.1668 54.3636L20.2316 54.4263C20.294 54.4865 20.3565 54.5517 20.4201 54.6069C20.4589 54.6445 20.5002 54.6797 20.5379 54.716C20.5756 54.7524 20.6309 54.8013 20.6792 54.8414C20.7688 54.9192 20.8607 54.9945 20.9526 55.0685L20.9738 55.1939C23.0059 56.9674 25.5535 57.9347 28.1812 57.9305C28.3555 57.9305 28.5287 57.9305 28.7019 57.9167C28.8197 57.6382 28.9222 57.415 28.9528 57.3448L28.974 57.2984L28.9999 57.2457L29.007 57.2306C29.0388 57.1629 29.0753 57.0851 29.1119 57.0099L29.2414 56.739C30.5642 54.0584 32.3223 51.6484 34.4344 49.6204C33.6248 50.1847 32.7747 50.6804 31.8921 51.1028Z" fill="url(#paint22_linear_11_4594)"/>
<path d="M27.4344 75.3821C27.4344 75.3583 27.4344 75.3357 27.4344 75.3119C25.9697 69.6059 26.4008 63.5365 28.6548 58.1299C26.1514 57.573 23.8519 56.1935 21.9045 54.4376C19.8264 52.5677 18.0534 50.1986 16.939 47.546C15.6914 44.5761 15.2897 41.1811 15.3804 37.9517C15.4257 35.6167 15.7563 33.2979 16.3641 31.0538C16.1767 31.3999 15.9989 31.7548 15.8339 32.116C14.734 34.5171 14.1642 37.154 14.1681 39.8254C14.1681 40.2259 14.1803 40.6226 14.2047 41.0156C14.2933 42.4311 14.5425 43.8301 14.9468 45.1819C15.0788 45.6209 15.226 46.0519 15.3886 46.475C16.0498 48.1998 16.9644 49.8017 18.0982 51.2207C18.7629 52.7381 19.7683 54.0578 21.0257 55.0635C21.222 56.2725 21.4423 57.4731 21.6866 58.6654C22.6753 63.5103 24.0528 68.2559 25.8039 72.85C26.3348 74.2463 26.8991 75.6259 27.4968 76.9887C27.4709 76.4544 27.4497 75.9189 27.4332 75.3821H27.4344Z" fill="url(#paint23_linear_11_4594)"/>
<path d="M24.2265 39.8191C24.8237 39.5796 25.5706 39.6937 25.6178 39.9922C25.699 40.5151 25.2007 40.6042 25.2007 40.6042C18.7788 42.6407 11.9071 42.3817 5.63656 39.8668C5.63656 39.8668 4.74477 39.557 5.07227 39.1218C5.39977 38.6867 8.59233 39.4705 8.59233 39.4705C8.59233 39.4705 12.5978 40.8638 15.9588 40.9516C19.3198 41.0394 22.9164 40.3408 24.2265 39.8191Z" fill="#CCCCCC"/>
<path d="M24.9521 39.5733C22.2861 38.0258 15.8927 39.4956 15.8927 39.4956C15.299 39.5248 14.7025 39.5437 14.1032 39.552C11.2714 39.5939 8.44074 39.4031 5.63647 38.9814C11.907 41.4964 18.7788 41.7554 25.2006 39.7188L24.9521 39.5733Z" fill="url(#paint24_linear_11_4594)"/>
<path d="M40.6382 30.1771C40.3447 30.4738 39.9572 30.6423 39.5525 30.6492C39.1478 30.6561 38.7555 30.5009 38.4532 30.2144C38.151 29.9278 37.9609 29.5308 37.9207 29.102C37.8805 28.6733 37.993 28.2441 38.2361 27.8996C39.2118 28.4193 40.0407 29.2052 40.6382 30.1771Z" fill="#CCCCCC"/>
<path d="M40.426 29.8773C40.2802 29.9951 40.0982 30.0507 39.9159 30.033C39.7336 30.0154 39.564 29.9258 39.4405 29.782C39.317 29.6381 39.2485 29.4503 39.2484 29.2554C39.2483 29.0605 39.3166 28.8726 39.44 28.7286C39.8578 29.0126 40.1979 29.4088 40.426 29.8773Z" fill="#3B2B29"/>
<path opacity="0.43" d="M47.4157 39.2046C47.1973 39.3683 46.9707 39.5195 46.7371 39.6573C46.72 39.8134 46.7129 39.9705 46.7159 40.1276L46.419 39.8354C46.1209 39.9935 45.814 40.1321 45.5001 40.2505L44.7638 41.7103C45.172 41.5825 45.5647 41.4041 45.9336 41.1785C46.5654 40.7831 47.1278 40.2739 47.5959 39.6736C47.5799 39.5306 47.5336 39.3934 47.4604 39.2723C47.4486 39.2497 47.4333 39.2284 47.4157 39.2046Z" fill="white"/>
<path opacity="0.11" d="M41.4052 30.7588C41.1691 30.2114 40.8934 29.6843 40.5805 29.1824C40.1267 28.4635 39.5851 27.8119 38.9701 27.2448C38.4258 26.7432 37.646 26.1299 36.8779 26.2754C36.561 26.4986 36.6823 26.8836 37.5635 27.3589C39.3765 27.9923 40.5087 29.2865 41.2803 30.9306C41.2862 30.9511 41.2933 30.9712 41.3015 30.9908H41.3204L41.3969 30.9156C41.3969 30.8591 41.4005 30.8115 41.4052 30.7588Z" fill="white"/>
<path d="M20.5097 23.9753C20.5106 24.985 20.3741 25.9896 20.1045 26.9577C24.1263 24.6537 28.5532 23.2624 33.1056 22.8716C31.1256 20.2919 28.6312 18.2137 25.8032 16.7876C22.9751 15.3616 19.8844 14.6234 16.7552 14.6268C16.2377 14.6268 15.7248 14.6464 15.2167 14.6857C16.8128 15.5704 18.1504 16.9043 19.0837 18.5423C20.017 20.1803 20.5102 22.0595 20.5097 23.9753Z" fill="white"/>
<path d="M41.5087 23.3934C40.5309 23.1827 39.5378 23.0192 38.5294 22.903C37.3391 22.7637 36.1244 22.6935 34.8962 22.6935C33.9585 22.6935 33.0239 22.7943 32.0894 22.8676C27.4579 23.2386 23.087 24.6707 19.112 26.9435C17.5741 28.5774 16.257 30.959 15.4255 33.096C14.594 35.2329 14.1671 37.5237 14.1693 39.8367C14.1693 40.2372 14.1815 40.6339 14.2058 41.0269C14.2944 42.4425 14.5436 43.8414 14.948 45.1932C15.0799 45.6322 15.2272 46.0632 15.3898 46.4863C16.514 49.4191 18.6 53.1339 21.0268 55.0748C21.2232 56.2838 21.4435 57.4844 21.6877 58.6767C22.6764 63.5216 24.0539 68.2672 25.8051 72.8613C26.336 74.2576 26.9003 75.6372 27.4979 77C27.472 76.4658 27.4508 75.86 27.4343 75.3232C27.4343 75.2994 27.4343 75.347 27.4343 75.3232C26.1569 70.3549 26.3168 65.0919 27.8931 60.2219C29.4694 55.3518 32.3887 51.1011 36.2698 48.0251C34.259 49.5073 32.0645 50.6849 29.7492 51.5242C29.1084 51.7575 28.4569 51.9665 27.7948 52.1513C27.7948 52.1513 26.1043 52.7357 24.8367 52.7696C23.803 52.7508 22.8055 52.3614 22.0054 51.6644C21.2054 50.9673 20.6495 50.0034 20.4277 48.9284C20.2059 47.8534 20.3312 46.7302 20.7832 45.7404C21.2353 44.7506 21.9877 43.952 22.9188 43.4738C24.4041 42.7605 25.9897 42.2987 27.6181 42.1368C27.7595 42.1368 27.902 42.1368 28.0434 42.1368C28.3968 42.1368 28.7596 42.1368 29.1154 42.1556C30.1121 42.1916 31.0938 42.2752 32.0606 42.4065C32.9371 42.5607 35.3604 43.0248 36.1332 43.248C36.7658 43.4248 38.1041 43.7058 39.2586 44.1059L39.8335 44.294C42.1602 44.9976 44.3467 44.8997 45.811 44.0294C46.3301 43.6014 46.8956 43.182 47.2117 42.5607C47.7053 41.5938 47.7324 40.4412 47.3731 39.2472C47.3625 39.2096 47.3731 39.1946 47.3731 39.1946C47.5239 38.9726 48.9187 38.8183 49.4736 38.6477C51.2104 38.3393 52.8555 37.6033 54.278 36.4985C55.7004 35.3938 56.8609 33.9506 57.6671 32.2841C53.0944 27.8715 47.6281 24.7096 41.5087 23.3934Z" fill="url(#paint25_linear_11_4594)"/>
<path opacity="0.13" d="M45.3491 34.2757C43.2852 33.305 41.2259 32.2954 39.0064 31.8075C36.7269 31.3059 34.3213 31.509 32.0382 31.8978C29.9247 32.259 27.922 32.9212 25.924 33.7226C25.1706 34.0132 24.4345 34.3525 23.7198 34.7385C23.3912 34.9146 23.0744 35.1145 22.7715 35.3367V40.4336H45.5506V34.371L45.3491 34.2757Z" fill="white"/>
<path d="M20.8137 54.8942C20.8844 54.9544 20.9551 55.0196 21.027 55.071C21.2233 56.28 21.4436 57.4807 21.6878 58.673C22.6765 63.5179 24.054 68.2635 25.8052 72.8575C26.3361 74.2538 26.9004 75.6334 27.4981 76.9963C27.4722 76.462 27.4509 75.9265 27.4345 75.3897C27.4345 75.3659 27.4345 75.3433 27.4345 75.3195C26.5538 71.8914 26.3523 68.3058 26.8429 64.7904C27.3335 61.275 28.5054 57.9066 30.2842 54.8992L20.8137 54.8942Z" fill="url(#paint26_linear_11_4594)"/>
<path d="M45.791 44.0457C46.1833 43.7234 46.5638 43.3797 46.9325 43.0261C47.0402 42.8796 47.1363 42.724 47.22 42.5608C47.7112 41.5976 47.7407 40.4488 47.3837 39.2586V39.2473L47.392 39.1808C47.5098 39.0554 48.047 38.9438 48.5701 38.8434C47.9351 38.8911 47.1564 38.94 46.6321 38.94C42.2223 38.9485 37.8866 37.733 34.0527 35.4133L33.6357 35.1236C31.5134 33.9165 29.0865 33.4558 26.7031 33.8078C24.3197 34.1597 22.1022 35.3061 20.3686 37.0826C18.6351 38.8591 17.4744 41.1744 17.0532 43.6965C16.632 46.2186 16.9718 48.8179 18.024 51.1217C18.0511 51.1581 18.0793 51.1932 18.1076 51.2283C18.3689 51.8245 18.6846 52.3921 19.0501 52.9227C19.6093 53.7397 20.2795 54.4638 21.0386 55.071L21.0598 55.1965C23.0919 56.9702 25.6395 57.9375 28.2673 57.933C28.4416 57.933 28.6207 57.933 28.7868 57.9193C28.9046 57.6408 29.0083 57.4176 29.0389 57.3474C29.1049 57.2069 29.2592 56.8858 29.3263 56.7416C31.0056 53.3395 33.3808 50.3822 36.2769 48.0879L36.284 48.0089C34.2729 49.4914 32.078 50.669 29.7622 51.508C29.1229 51.7412 28.4715 51.9503 27.8078 52.1351C27.8078 52.1351 26.1185 52.7195 24.8509 52.7534C23.8171 52.7348 22.8194 52.3456 22.0191 51.6487C21.2189 50.9517 20.6628 49.9878 20.4409 48.9127C20.2189 47.8377 20.3441 46.7144 20.7961 45.7244C21.2481 44.7345 22.0006 43.9358 22.9318 43.4575L22.993 43.4287L23.0708 43.391L23.1556 43.3509C24.5767 42.6893 26.088 42.2739 27.6323 42.1206H28.0564C28.4161 42.1206 28.7738 42.1268 29.1296 42.1394C30.1262 42.1753 31.1099 42.2589 32.0807 42.3902C32.9583 42.5445 35.3604 43.0248 36.1415 43.2481L36.3771 43.3108C37.0686 43.4889 38.2396 43.751 39.2645 44.1059L39.8406 44.294C42.1531 44.9938 44.3267 44.9061 45.791 44.0457Z" fill="url(#paint27_linear_11_4594)"/>
<path opacity="0.53" d="M45.791 44.0457C46.1833 43.7234 46.5638 43.3797 46.9325 43.0261C47.0402 42.8796 47.1363 42.724 47.22 42.5608C47.7112 41.5976 47.7407 40.4488 47.3837 39.2586V39.2473L47.392 39.1808C47.5098 39.0554 48.047 38.9438 48.5701 38.8434C47.9351 38.8911 47.1564 38.94 46.6321 38.94C42.2223 38.9485 37.8866 37.733 34.0527 35.4133L33.6357 35.1236C31.5134 33.9165 29.0865 33.4558 26.7031 33.8078C24.3197 34.1597 22.1022 35.3061 20.3686 37.0826C18.6351 38.8591 17.4744 41.1744 17.0532 43.6965C16.632 46.2186 16.9718 48.8179 18.024 51.1217C18.0511 51.1581 18.0793 51.1932 18.1076 51.2283C18.3689 51.8245 18.6846 52.3921 19.0501 52.9227C19.6093 53.7397 20.2795 54.4638 21.0386 55.071L21.0598 55.1965C23.0919 56.9702 25.6395 57.9375 28.2673 57.933C28.4416 57.933 28.6207 57.933 28.7868 57.9193C28.9046 57.6408 29.0083 57.4176 29.0389 57.3474C29.1049 57.2069 29.2592 56.8858 29.3263 56.7416C31.0056 53.3395 33.3808 50.3822 36.2769 48.0879L36.284 48.0089C34.2729 49.4914 32.078 50.669 29.7622 51.508C29.1229 51.7412 28.4715 51.9503 27.8078 52.1351C27.8078 52.1351 26.1185 52.7195 24.8509 52.7534C23.8171 52.7348 22.8194 52.3456 22.0191 51.6487C21.2189 50.9517 20.6628 49.9878 20.4409 48.9127C20.2189 47.8377 20.3441 46.7144 20.7961 45.7244C21.2481 44.7345 22.0006 43.9358 22.9318 43.4575L22.993 43.4287L23.0708 43.391L23.1556 43.3509C24.5767 42.6893 26.088 42.2739 27.6323 42.1206H28.0564C28.4161 42.1206 28.7738 42.1268 29.1296 42.1394C30.1262 42.1753 31.1099 42.2589 32.0807 42.3902C32.9583 42.5445 35.3604 43.0248 36.1415 43.2481L36.3771 43.3108C37.0686 43.4889 38.2396 43.751 39.2645 44.1059L39.8406 44.294C42.1531 44.9938 44.3267 44.9061 45.791 44.0457Z" fill="url(#paint28_radial_11_4594)"/>
<path d="M59.5602 40.9052C60.055 41.3342 60.7948 41.4847 60.9315 41.2125C61.1671 40.7447 60.7194 40.4914 60.7194 40.4914C55.2436 36.3809 48.6535 34.2937 41.9575 34.5491C41.9575 34.5491 41.0151 34.5404 41.2 35.0646C41.385 35.5888 44.64 35.9287 44.64 35.9287C44.64 35.9287 48.8587 35.9688 52.0618 37.0249C55.265 38.0809 58.4752 39.9646 59.5602 40.9052Z" fill="#CCCCCC"/>
<path d="M60.4532 41.3301C54.9767 37.2193 48.3856 35.1322 41.6889 35.3882C44.4731 35.9412 47.2131 36.7214 49.8847 37.722C50.4502 37.9327 51.0102 38.153 51.5647 38.383" fill="url(#paint29_linear_11_4594)"/>
<path d="M19.1031 26.9577C23.1249 24.6537 27.5518 23.2624 32.1042 22.8716C30.1246 20.2924 27.6307 18.2145 24.8034 16.7884C21.976 15.3624 18.886 14.624 15.7574 14.6267C15.499 14.6267 15.2429 14.6318 14.9893 14.6418C14.8913 14.6426 14.7998 14.7169 14.7733 14.8173C14.7467 14.9177 14.7882 15.0319 14.8715 15.087C16.2911 16.0262 17.4622 17.3353 18.2742 18.8906C19.5526 21.3392 19.8517 24.2822 19.1031 26.9577Z" fill="url(#paint30_linear_11_4594)"/>
<path d="M36.641 36.8079C37.4067 37.1515 38.1898 37.4562 38.9901 37.7221C41.443 38.5318 43.9968 38.9423 46.565 38.9398C46.697 38.9398 46.8466 38.9398 47.0056 38.9311C48.2202 39.7788 47.0869 41.1671 46.3471 41.8155C43.4926 43.9299 38.7014 42.2921 36.1462 40.0598C36.1462 40.0598 34.8657 38.773 35.6102 37.5842C35.8668 37.2145 36.2282 36.9424 36.641 36.8079Z" fill="url(#paint31_linear_11_4594)"/>
<path opacity="0.63" d="M36.8625 39.9356L38.3763 38.9436L39.1939 41.2549L40.8279 39.9406L41.7338 42.0212L43.3902 40.2654L44.6861 41.8168L45.8865 39.434L46.6546 40.1864C46.6546 40.1864 46.6228 39.1706 46.9821 38.9474C47.0834 38.8847 47.312 39.1982 47.398 39.3299C47.8951 40.1651 46.9786 41.2562 46.3483 41.8067C43.4939 43.9212 38.7027 42.2833 36.1474 40.051C36.1474 40.051 35.1449 39.0477 35.4312 37.9867L36.5433 37.84L36.8625 39.9356Z" fill="white"/>
<g opacity="0.63">
<path d="M38.9971 37.7234C41.0994 38.4175 43.2774 38.818 45.4765 38.9148L44.6837 40.4849L43.3878 38.9336L41.7314 40.6893L40.8255 38.6075L39.1915 39.9218L38.374 37.6105L36.8601 38.6025L36.5786 36.774C37.3671 37.1319 38.1733 37.4483 38.9971 37.7234Z" fill="white"/>
</g>
<path d="M41.2766 30.9307C40.9265 30.0915 40.4148 29.3399 39.7745 28.7246C39.1343 28.1093 38.3797 27.6441 37.5598 27.359" fill="url(#paint32_linear_11_4594)"/>
<path opacity="0.25" d="M57.1004 31.7373C55.3434 30.0597 53.4242 28.5853 51.375 27.3389C51.6754 27.6224 54.1941 29.8623 54.2742 30.976C54.3543 32.0897 44.7425 30.2887 39.0877 32.6064C33.433 34.9241 54.7984 35.4634 54.6641 35.8271C54.5923 36.0189 54.5092 36.2057 54.4156 36.3865C55.7744 35.2958 56.8849 33.8932 57.6647 32.2828L57.1004 31.7373Z" fill="white"/>
<path d="M39.0782 37.7234C37.3366 37.1469 35.6584 36.3724 34.0726 35.4132C36.1489 33.408 38.8525 32.2982 41.6558 32.3004C41.7465 32.3004 41.8372 32.3004 41.9268 32.3004C42.5049 32.3199 43.0786 32.4151 43.635 32.5838C44.3127 32.7837 45.0011 32.9509 45.7001 33.0855C49.6583 33.8694 53.7341 33.6515 57.5986 32.4496C56.7839 34.074 55.6298 35.4776 54.2252 36.5522C52.8206 37.6267 51.203 38.3437 49.497 38.6477C49.2803 38.7129 48.9374 38.7731 48.5887 38.8433C47.9538 38.891 47.1751 38.9399 46.6508 38.9399C44.0835 38.9428 41.5304 38.5326 39.0782 37.7234Z" fill="url(#paint33_linear_11_4594)"/>
<path opacity="0.51" d="M36.3676 35.832C37.3711 36.1693 38.3942 36.4362 39.4305 36.6309C42.816 37.2567 46.2816 37.2014 49.6479 36.4679C52.3457 35.8847 54.9492 34.8175 57.2217 33.1696C57.3584 32.9375 57.4868 32.7005 57.6093 32.4585C53.7448 33.6603 49.669 33.8781 45.7108 33.0943C45.0126 32.9564 44.3242 32.7891 43.6457 32.5927C43.0894 32.424 42.5156 32.3288 41.9375 32.3092C41.8479 32.3092 41.7572 32.3092 41.6665 32.3092C39.0442 32.3075 36.5032 33.2782 34.4803 35.0545C35.047 35.4194 35.7503 35.6251 36.3676 35.832Z" fill="url(#paint34_radial_11_4594)"/>
<path opacity="0.4" d="M45.3987 37.9553C43.329 37.8589 41.2729 37.5511 39.2586 37.0361C38.2867 36.794 37.3254 36.5106 36.377 36.1758C35.6431 35.9162 34.9162 35.6265 34.293 35.1336C34.1917 35.2252 34.0904 35.318 33.9914 35.4133C37.8253 37.7328 42.161 38.9483 46.5708 38.9398C47.0951 38.9398 47.8738 38.8909 48.5099 38.8433C48.8633 38.7768 49.2003 38.7178 49.417 38.6476C50.7443 38.4138 52.0212 37.9278 53.1869 37.2129C50.6316 37.8157 48.0139 38.0653 45.3987 37.9553Z" fill="url(#paint35_linear_11_4594)"/>
<path opacity="0.36" d="M43.3289 44.1534C41.0093 43.9514 38.8522 43.0736 36.6704 42.2722C34.2907 41.3943 31.8604 40.5465 29.3323 40.3559C27.2435 40.1991 24.9734 40.4249 23.158 41.6351C22.3047 42.2044 21.6068 43.0023 21.1341 43.9489C20.7724 44.6738 20.4803 45.5492 20.5345 46.3882C20.7251 45.7538 21.0348 45.1674 21.4449 44.6644C21.855 44.1614 22.3569 43.7525 22.92 43.4623L22.9813 43.4335L23.059 43.3959L23.1439 43.3557C24.5649 42.6942 26.0762 42.2788 27.6205 42.1255H28.0446C28.4043 42.1255 28.7621 42.1317 29.1178 42.1443C30.1145 42.1802 31.0982 42.2638 32.0689 42.3951C32.9466 42.5493 35.3604 43.0247 36.1415 43.2479L36.3771 43.3106C37.0686 43.4887 38.2396 43.7508 39.2645 44.1057L39.8406 44.2938C42.1296 44.9861 44.2855 44.9021 45.7486 44.0693C44.9477 44.1954 44.1358 44.2236 43.3289 44.1534Z" fill="url(#paint36_linear_11_4594)"/>
<path opacity="0.43" d="M40.0962 40.5301L39.1938 41.255L38.7767 40.0862C38.3634 39.9142 37.9649 39.7044 37.5857 39.4591L36.8589 39.9357L36.6715 38.7192C36.4307 38.4784 36.2165 38.2091 36.033 37.9166L35.6337 37.9692C35.7303 39.2635 36.7222 40.1276 37.7401 40.6819C38.9311 41.3302 40.3259 41.7366 41.6453 41.9435L41.6984 41.951L41.1788 40.7571C40.8313 40.7007 40.4649 40.6267 40.0962 40.5301Z" fill="white"/>
<path opacity="0.43" d="M42.8411 40.8475L41.7891 41.9637C42.7475 42.1137 43.7245 42.0531 44.66 41.7856L43.7953 40.7497C43.4791 40.8004 43.1606 40.833 42.8411 40.8475Z" fill="white"/>
<g opacity="0.18">
<path d="M37.574 38.0193L37.6788 38.0695L38.3762 37.613L38.6955 38.516C38.8368 38.5724 38.9782 38.6263 39.1219 38.679C39.5052 38.8169 39.8928 38.9399 40.2847 39.0477L40.8278 38.61L41.107 39.2496C41.5546 39.3487 42.007 39.4277 42.4606 39.4866L42.8258 39.533L43.3901 38.9336L43.9862 39.6472C44.349 39.676 44.713 39.6961 45.0771 39.7049L45.4764 38.9148C43.2773 38.818 41.0993 38.4175 38.9971 37.7234C38.1732 37.45 37.3678 37.1344 36.5808 36.7765L36.6845 37.4437C36.9107 37.7221 37.2641 37.8701 37.574 38.0193Z" fill="url(#paint37_linear_11_4594)"/>
<path d="M42.0556 40.2921C41.8764 40.2657 41.7019 40.2356 41.5215 40.2041L41.7337 40.6931L42.1051 40.2984L42.0556 40.2921Z" fill="url(#paint38_linear_11_4594)"/>
<path d="M39.0653 39.562L39.1937 39.925L39.4741 39.6989C39.3374 39.655 39.2008 39.6098 39.0653 39.562Z" fill="url(#paint39_linear_11_4594)"/>
</g>
<path opacity="0.36" d="M24.746 40.1401C24.2548 39.9596 23.7352 39.7639 23.3418 39.4065H16.3087V41.7053C17.402 43.0421 19.5967 43.1926 21.0705 42.6358C22.0683 42.2596 22.9554 41.6012 23.8896 41.0732L25.1949 40.327V40.2869C25.0441 40.2367 24.8945 40.1903 24.746 40.1401Z" fill="url(#paint40_linear_11_4594)"/>
<path opacity="0.15" d="M26.0807 23.9942C26.1208 22.7137 25.434 21.6439 24.5493 20.8049C23.4797 19.8131 22.2449 19.0436 20.909 18.5361C19.8888 18.1373 18.7685 17.835 17.667 17.8739C18.5398 19.1719 19.1228 20.6649 19.3716 22.2391C19.6205 23.8132 19.5286 25.4271 19.1031 26.9578C21.3157 25.6911 23.6567 24.6969 26.0807 23.9942Z" fill="url(#paint41_linear_11_4594)"/>
<path d="M31.8921 51.1028C29.2049 52.3845 26.3269 53.0442 23.3982 53.2825C20.5096 53.2462 18.9875 50.3641 18.6506 49.2905C18.576 49.0506 18.51 48.8135 18.4527 48.5794C18.3224 48.1855 18.2134 47.7839 18.1264 47.3767C17.7989 45.9183 17.6798 44.4156 17.773 42.9194C17.83 41.9956 17.9393 41.0763 18.1005 40.1665C17.2693 41.8515 16.8218 43.7209 16.7942 45.6239C16.7666 47.5268 17.1596 49.4101 17.9414 51.1216L18.0251 51.2282C18.2868 51.8242 18.6025 52.3917 18.9675 52.9226L19.0347 53.0166C19.2391 53.3075 19.4577 53.5868 19.6897 53.8532L19.6967 53.8619C19.771 53.946 19.8464 54.03 19.9229 54.1128L19.9536 54.1429C20.0231 54.2181 20.0938 54.2909 20.1668 54.3636L20.2316 54.4263C20.294 54.4865 20.3565 54.5517 20.4201 54.6069C20.4589 54.6445 20.5002 54.6797 20.5379 54.716C20.5756 54.7524 20.6309 54.8013 20.6792 54.8414C20.7688 54.9192 20.8607 54.9945 20.9526 55.0685C22.9847 56.842 25.5535 57.9347 28.1812 57.9305C28.3555 57.9305 28.525 57.9442 28.6982 57.9305C28.816 57.652 28.9222 57.415 28.9528 57.3448L28.974 57.2984L28.9999 57.2457L29.007 57.2306C29.0388 57.1629 29.0753 57.0851 29.1118 57.0099L29.2414 56.739C30.5642 54.0584 32.3223 51.6484 34.4344 49.6204C33.6248 50.1847 32.7747 50.6804 31.8921 51.1028Z" fill="url(#paint42_linear_11_4594)"/>
<path d="M27.4344 75.3821C27.4344 75.3583 27.4344 75.3357 27.4344 75.3119C25.9697 69.6059 26.4008 63.5365 28.6548 58.1299C26.1514 57.573 23.8519 56.1935 21.9045 54.4376C19.8264 52.5677 18.0534 50.1986 16.939 47.546C15.6914 44.5761 15.2897 41.1811 15.3804 37.9517C15.4257 35.6167 15.7563 33.2979 16.3641 31.0538C16.1767 31.3999 15.9989 31.7548 15.8339 32.116C14.734 34.5171 14.1642 37.154 14.1681 39.8254C14.1681 40.2259 14.1803 40.6226 14.2047 41.0156C14.2933 42.4311 14.5425 43.8301 14.9468 45.1819C15.0788 45.6209 15.226 46.0519 15.3886 46.475C16.0498 48.1998 17.0074 49.7678 18.1412 51.1868C18.8059 52.7042 19.7683 54.0578 21.0257 55.0635C21.222 56.2725 21.4423 57.4731 21.6866 58.6654C22.6753 63.5103 24.0528 68.2559 25.8039 72.85C26.3348 74.2463 26.8991 75.6259 27.4968 76.9887C27.4709 76.4544 27.4497 75.9189 27.4332 75.3821H27.4344Z" fill="url(#paint43_linear_11_4594)"/>
<path d="M24.2265 39.8191C24.8237 39.5796 25.5706 39.6937 25.6178 39.9922C25.699 40.5151 25.2007 40.6042 25.2007 40.6042C18.7788 42.6407 11.9071 42.3817 5.63656 39.8668C5.63656 39.8668 4.74477 39.557 5.07227 39.1218C5.39977 38.6867 8.59233 39.4705 8.59233 39.4705C8.59233 39.4705 12.5978 40.8638 15.9588 40.9516C19.3198 41.0394 22.9164 40.3408 24.2265 39.8191Z" fill="#CCCCCC"/>
<path d="M24.9521 39.5733C22.2861 38.0258 15.8927 39.4956 15.8927 39.4956C15.299 39.5248 14.7025 39.5437 14.1032 39.552C11.2714 39.5939 8.44074 39.4031 5.63647 38.9814C11.907 41.4964 18.7788 41.7554 25.2006 39.7188L24.9521 39.5733Z" fill="url(#paint44_linear_11_4594)"/>
<path d="M40.6382 30.1771C40.3447 30.4738 39.9572 30.6423 39.5525 30.6492C39.1478 30.6561 38.7555 30.5009 38.4532 30.2144C38.151 29.9278 37.9609 29.5308 37.9207 29.102C37.8805 28.6733 37.993 28.2441 38.2361 27.8996C39.2118 28.4193 40.0407 29.2052 40.6382 30.1771Z" fill="#CCCCCC"/>
<path d="M40.426 29.8773C40.2802 29.9951 40.0982 30.0507 39.9159 30.033C39.7336 30.0154 39.564 29.9258 39.4405 29.782C39.317 29.6381 39.2485 29.4503 39.2484 29.2554C39.2483 29.0605 39.3166 28.8726 39.44 28.7286C39.8578 29.0126 40.1979 29.4088 40.426 29.8773Z" fill="#3B2B29"/>
<path opacity="0.43" d="M47.4157 39.2046C47.1973 39.3683 46.9707 39.5195 46.7371 39.6573C46.72 39.8134 46.7129 39.9705 46.7159 40.1276L46.419 39.8354C46.1209 39.9935 45.814 40.1321 45.5001 40.2505L44.7638 41.7103C45.172 41.5825 45.5647 41.4041 45.9336 41.1785C46.5654 40.7831 47.1278 40.2739 47.5959 39.6736C47.5799 39.5306 47.5336 39.3934 47.4604 39.2723C47.4486 39.2497 47.4333 39.2284 47.4157 39.2046Z" fill="white"/>
<path opacity="0.11" d="M41.4052 30.7588C41.1691 30.2114 40.8934 29.6843 40.5805 29.1824C40.1267 28.4635 39.5851 27.8119 38.9701 27.2448C38.4258 26.7432 37.646 26.1299 36.8779 26.2754C36.561 26.4986 36.6823 26.8836 37.5635 27.3589C39.3765 27.9923 40.5087 29.2865 41.2803 30.9306C41.2862 30.9511 41.2933 30.9712 41.3015 30.9908H41.3204L41.3969 30.9156C41.3969 30.8591 41.4005 30.8115 41.4052 30.7588Z" fill="white"/>
<defs>
<radialGradient id="paint0_radial_11_4594" cx="0" cy="0" r="1" gradientUnits="userSpaceOnUse" gradientTransform="translate(52.8988 17.073) scale(46.4584 47.9979)">
<stop offset="0.36" stop-color="#EAF0F0"/>
<stop offset="0.62" stop-color="#E4EAEA"/>
<stop offset="1" stop-color="#B5B5B5"/>
</radialGradient>
<linearGradient id="paint1_linear_11_4594" x1="44.2768" y1="20.6495" x2="14.7582" y2="45.377" gradientUnits="userSpaceOnUse">
<stop stop-color="#9E9E9E"/>
<stop offset="0.26" stop-color="#939393"/>
<stop offset="0.64" stop-color="#7A7A7A"/>
<stop offset="1" stop-color="#7A7A7A"/>
</linearGradient>
<radialGradient id="paint2_radial_11_4594" cx="0" cy="0" r="1" gradientUnits="userSpaceOnUse" gradientTransform="translate(54.4361 13.9096) scale(49.4122 52.1709)">
<stop stop-color="#9E9E9E"/>
<stop offset="0.26" stop-color="#939393"/>
<stop offset="0.64" stop-color="#7A7A7A"/>
<stop offset="1" stop-color="#7A7A7A"/>
</radialGradient>
<radialGradient id="paint3_radial_11_4594" cx="0" cy="0" r="1" gradientUnits="userSpaceOnUse" gradientTransform="translate(17.626 -18.8224) scale(45.3485 47.8802)">
<stop offset="0.36" stop-color="#EAF0F0"/>
<stop offset="0.62" stop-color="#E4EAEA"/>
<stop offset="1" stop-color="#B5B5B5"/>
</radialGradient>
<radialGradient id="paint4_radial_11_4594" cx="0" cy="0" r="1" gradientUnits="userSpaceOnUse" gradientTransform="translate(17.626 -18.8225) scale(45.3485 47.8803)">
<stop offset="0.36" stop-color="#EAF0F0"/>
<stop offset="0.62" stop-color="#E4EAEA"/>
<stop offset="1" stop-color="#B5B5B5"/>
</radialGradient>
<linearGradient id="paint5_linear_11_4594" x1="55.1778" y1="38.0269" x2="11.0688" y2="54.8553" gradientUnits="userSpaceOnUse">
<stop offset="0.42" stop-color="#F51F36"/>
<stop offset="0.62" stop-color="#D51F36"/>
<stop offset="0.81" stop-color="#B71D37"/>
<stop offset="1" stop-color="#A51B38"/>
</linearGradient>
<linearGradient id="paint6_linear_11_4594" x1="22.1779" y1="68.32" x2="41.2466" y2="48.0945" gradientUnits="userSpaceOnUse">
<stop offset="0.15" stop-color="#FF2715"/>
<stop offset="0.5" stop-color="#FF5428"/>
<stop offset="1" stop-color="#FF9C42"/>
</linearGradient>
<linearGradient id="paint7_linear_11_4594" x1="48.9129" y1="84.7997" x2="26.6704" y2="34.7903" gradientUnits="userSpaceOnUse">
<stop offset="0.19" stop-color="#EAF0F0"/>
<stop offset="0.46" stop-color="#E4EAEA"/>
<stop offset="1" stop-color="#B5B5B5"/>
</linearGradient>
<radialGradient id="paint8_radial_11_4594" cx="0" cy="0" r="1" gradientUnits="userSpaceOnUse" gradientTransform="translate(24.2877 27.9498) scale(23.87 25.4118)">
<stop stop-color="white"/>
<stop offset="1" stop-color="#494949" stop-opacity="0"/>
</radialGradient>
<linearGradient id="paint9_linear_11_4594" x1="41.6901" y1="38.3478" x2="60.4544" y2="38.3478" gradientUnits="userSpaceOnUse">
<stop stop-color="#F2445E"/>
<stop offset="0.42" stop-color="#F51F36"/>
<stop offset="0.62" stop-color="#D51F36"/>
<stop offset="0.81" stop-color="#B71D37"/>
<stop offset="1" stop-color="#A51B38"/>
</linearGradient>
<linearGradient id="paint10_linear_11_4594" x1="32.7533" y1="18.3591" x2="13.8343" y2="20.9527" gradientUnits="userSpaceOnUse">
<stop stop-color="#F2445E"/>
<stop offset="0.42" stop-color="#F51F36"/>
<stop offset="0.62" stop-color="#D51F36"/>
<stop offset="0.81" stop-color="#B71D37"/>
<stop offset="1" stop-color="#A51B38"/>
</linearGradient>
<linearGradient id="paint11_linear_11_4594" x1="41.3839" y1="39.7613" x2="40.4086" y2="47.1418" gradientUnits="userSpaceOnUse">
<stop stop-color="#5E5E5E"/>
<stop offset="1"/>
</linearGradient>
<linearGradient id="paint12_linear_11_4594" x1="39.1396" y1="29.3367" x2="43.4179" y2="26.7415" gradientUnits="userSpaceOnUse">
<stop stop-color="#813301"/>
<stop offset="0.58" stop-color="#FF2715"/>
<stop offset="0.87" stop-color="#FF5428"/>
<stop offset="1" stop-color="#FF9C42"/>
</linearGradient>
<linearGradient id="paint13_linear_11_4594" x1="45.9122" y1="28.7072" x2="45.7279" y2="40.1448" gradientUnits="userSpaceOnUse">
<stop offset="0.19" stop-color="#EAF0F0"/>
<stop offset="0.46" stop-color="#E4EAEA"/>
<stop offset="1" stop-color="#B5B5B5"/>
</linearGradient>
<radialGradient id="paint14_radial_11_4594" cx="0" cy="0" r="1" gradientUnits="userSpaceOnUse" gradientTransform="translate(44.7236 29.6756) scale(11.6369 12.3881)">
<stop stop-color="white"/>
<stop offset="1" stop-color="#494949" stop-opacity="0"/>
</radialGradient>
<linearGradient id="paint15_linear_11_4594" x1="43.5832" y1="36.0767" x2="43.9383" y2="45.2025" gradientUnits="userSpaceOnUse">
<stop stop-color="#5E5E5E"/>
<stop offset="1"/>
</linearGradient>
<linearGradient id="paint16_linear_11_4594" x1="16.8754" y1="43.3407" x2="48.5713" y2="43.3407" gradientUnits="userSpaceOnUse">
<stop stop-color="#5E5E5E"/>
<stop offset="1"/>
</linearGradient>
<linearGradient id="paint17_linear_11_4594" x1="36.5808" y1="38.2401" x2="45.4764" y2="38.2401" gradientUnits="userSpaceOnUse">
<stop stop-color="#5E5E5E"/>
<stop offset="1"/>
</linearGradient>
<linearGradient id="paint18_linear_11_4594" x1="41.5215" y1="40.448" x2="42.1051" y2="40.448" gradientUnits="userSpaceOnUse">
<stop stop-color="#5E5E5E"/>
<stop offset="1"/>
</linearGradient>
<linearGradient id="paint19_linear_11_4594" x1="39.0653" y1="39.7429" x2="39.4741" y2="39.7429" gradientUnits="userSpaceOnUse">
<stop stop-color="#5E5E5E"/>
<stop offset="1"/>
</linearGradient>
<linearGradient id="paint20_linear_11_4594" x1="16.3087" y1="41.1685" x2="25.1949" y2="41.1685" gradientUnits="userSpaceOnUse">
<stop stop-color="#5E5E5E"/>
<stop offset="1"/>
</linearGradient>
<linearGradient id="paint21_linear_11_4594" x1="22.1719" y1="20.6192" x2="18.6534" y2="23.9243" gradientUnits="userSpaceOnUse">
<stop stop-color="#5E5E5E"/>
<stop offset="1"/>
</linearGradient>
<linearGradient id="paint22_linear_11_4594" x1="32.9865" y1="43.9027" x2="11.7996" y2="53.9305" gradientUnits="userSpaceOnUse">
<stop stop-color="#F2445E"/>
<stop offset="0.42" stop-color="#F51F36"/>
<stop offset="0.62" stop-color="#D51F36"/>
<stop offset="0.81" stop-color="#B71D37"/>
<stop offset="1" stop-color="#A51B38"/>
</linearGradient>
<linearGradient id="paint23_linear_11_4594" x1="40.4885" y1="52.1914" x2="14.2997" y2="54.4755" gradientUnits="userSpaceOnUse">
<stop stop-color="#F2445E"/>
<stop offset="0.42" stop-color="#F51F36"/>
<stop offset="0.62" stop-color="#D51F36"/>
<stop offset="0.81" stop-color="#B71D37"/>
<stop offset="1" stop-color="#A51B38"/>
</linearGradient>
<linearGradient id="paint24_linear_11_4594" x1="5.63647" y1="39.9709" x2="25.2006" y2="39.9709" gradientUnits="userSpaceOnUse">
<stop stop-color="#F2445E"/>
<stop offset="0.42" stop-color="#F51F36"/>
<stop offset="0.62" stop-color="#D51F36"/>
<stop offset="0.81" stop-color="#B71D37"/>
<stop offset="1" stop-color="#A51B38"/>
</linearGradient>
<linearGradient id="paint25_linear_11_4594" x1="55.1778" y1="38.0269" x2="11.0688" y2="54.8553" gradientUnits="userSpaceOnUse">
<stop offset="0.42" stop-color="#F51F36"/>
<stop offset="0.62" stop-color="#D51F36"/>
<stop offset="0.81" stop-color="#B71D37"/>
<stop offset="1" stop-color="#A51B38"/>
</linearGradient>
<linearGradient id="paint26_linear_11_4594" x1="22.1779" y1="68.32" x2="41.2466" y2="48.0945" gradientUnits="userSpaceOnUse">
<stop offset="0.15" stop-color="#FF2715"/>
<stop offset="0.5" stop-color="#FF5428"/>
<stop offset="1" stop-color="#FF9C42"/>
</linearGradient>
<linearGradient id="paint27_linear_11_4594" x1="48.9129" y1="84.7997" x2="26.6704" y2="34.7903" gradientUnits="userSpaceOnUse">
<stop offset="0.19" stop-color="#EAF0F0"/>
<stop offset="0.46" stop-color="#E4EAEA"/>
<stop offset="1" stop-color="#B5B5B5"/>
</linearGradient>
<radialGradient id="paint28_radial_11_4594" cx="0" cy="0" r="1" gradientUnits="userSpaceOnUse" gradientTransform="translate(24.2877 27.9498) scale(23.87 25.4118)">
<stop stop-color="white"/>
<stop offset="1" stop-color="#494949" stop-opacity="0"/>
</radialGradient>
<linearGradient id="paint29_linear_11_4594" x1="41.6901" y1="38.3478" x2="60.4544" y2="38.3478" gradientUnits="userSpaceOnUse">
<stop stop-color="#F2445E"/>
<stop offset="0.42" stop-color="#F51F36"/>
<stop offset="0.62" stop-color="#D51F36"/>
<stop offset="0.81" stop-color="#B71D37"/>
<stop offset="1" stop-color="#A51B38"/>
</linearGradient>
<linearGradient id="paint30_linear_11_4594" x1="32.7533" y1="18.3591" x2="13.8343" y2="20.9527" gradientUnits="userSpaceOnUse">
<stop stop-color="#F2445E"/>
<stop offset="0.42" stop-color="#F51F36"/>
<stop offset="0.62" stop-color="#D51F36"/>
<stop offset="0.81" stop-color="#B71D37"/>
<stop offset="1" stop-color="#A51B38"/>
</linearGradient>
<linearGradient id="paint31_linear_11_4594" x1="41.3839" y1="39.7613" x2="40.4086" y2="47.1418" gradientUnits="userSpaceOnUse">
<stop stop-color="#5E5E5E"/>
<stop offset="1"/>
</linearGradient>
<linearGradient id="paint32_linear_11_4594" x1="39.1396" y1="29.3367" x2="43.4179" y2="26.7415" gradientUnits="userSpaceOnUse">
<stop stop-color="#813301"/>
<stop offset="0.58" stop-color="#FF2715"/>
<stop offset="0.87" stop-color="#FF5428"/>
<stop offset="1" stop-color="#FF9C42"/>
</linearGradient>
<linearGradient id="paint33_linear_11_4594" x1="45.9122" y1="28.7072" x2="45.7279" y2="40.1448" gradientUnits="userSpaceOnUse">
<stop offset="0.19" stop-color="#EAF0F0"/>
<stop offset="0.46" stop-color="#E4EAEA"/>
<stop offset="1" stop-color="#B5B5B5"/>
</linearGradient>
<radialGradient id="paint34_radial_11_4594" cx="0" cy="0" r="1" gradientUnits="userSpaceOnUse" gradientTransform="translate(44.7236 29.6756) scale(11.6369 12.3881)">
<stop stop-color="white"/>
<stop offset="1" stop-color="#494949" stop-opacity="0"/>
</radialGradient>
<linearGradient id="paint35_linear_11_4594" x1="43.5832" y1="36.0767" x2="43.9383" y2="45.2025" gradientUnits="userSpaceOnUse">
<stop stop-color="#5E5E5E"/>
<stop offset="1"/>
</linearGradient>
<linearGradient id="paint36_linear_11_4594" x1="16.8754" y1="43.3407" x2="48.5713" y2="43.3407" gradientUnits="userSpaceOnUse">
<stop stop-color="#5E5E5E"/>
<stop offset="1"/>
</linearGradient>
<linearGradient id="paint37_linear_11_4594" x1="36.5808" y1="38.2401" x2="45.4764" y2="38.2401" gradientUnits="userSpaceOnUse">
<stop stop-color="#5E5E5E"/>
<stop offset="1"/>
</linearGradient>
<linearGradient id="paint38_linear_11_4594" x1="41.5215" y1="40.448" x2="42.1051" y2="40.448" gradientUnits="userSpaceOnUse">
<stop stop-color="#5E5E5E"/>
<stop offset="1"/>
</linearGradient>
<linearGradient id="paint39_linear_11_4594" x1="39.0653" y1="39.7429" x2="39.4741" y2="39.7429" gradientUnits="userSpaceOnUse">
<stop stop-color="#5E5E5E"/>
<stop offset="1"/>
</linearGradient>
<linearGradient id="paint40_linear_11_4594" x1="16.3087" y1="41.1685" x2="25.1949" y2="41.1685" gradientUnits="userSpaceOnUse">
<stop stop-color="#5E5E5E"/>
<stop offset="1"/>
</linearGradient>
<linearGradient id="paint41_linear_11_4594" x1="22.1719" y1="20.6192" x2="18.6534" y2="23.9243" gradientUnits="userSpaceOnUse">
<stop stop-color="#5E5E5E"/>
<stop offset="1"/>
</linearGradient>
<linearGradient id="paint42_linear_11_4594" x1="32.9865" y1="43.9027" x2="11.7996" y2="53.9305" gradientUnits="userSpaceOnUse">
<stop stop-color="#F2445E"/>
<stop offset="0.42" stop-color="#F51F36"/>
<stop offset="0.62" stop-color="#D51F36"/>
<stop offset="0.81" stop-color="#B71D37"/>
<stop offset="1" stop-color="#A51B38"/>
</linearGradient>
<linearGradient id="paint43_linear_11_4594" x1="40.4885" y1="52.1914" x2="14.2997" y2="54.4755" gradientUnits="userSpaceOnUse">
<stop stop-color="#F2445E"/>
<stop offset="0.42" stop-color="#F51F36"/>
<stop offset="0.62" stop-color="#D51F36"/>
<stop offset="0.81" stop-color="#B71D37"/>
<stop offset="1" stop-color="#A51B38"/>
</linearGradient>
<linearGradient id="paint44_linear_11_4594" x1="5.63647" y1="39.9709" x2="25.2006" y2="39.9709" gradientUnits="userSpaceOnUse">
<stop stop-color="#F2445E"/>
<stop offset="0.42" stop-color="#F51F36"/>
<stop offset="0.62" stop-color="#D51F36"/>
<stop offset="0.81" stop-color="#B71D37"/>
<stop offset="1" stop-color="#A51B38"/>
</linearGradient>
</defs>
</svg>
